<mxfile host="65bd71144e" pages="2">
    <diagram name="Default scheme" id="-H_mtQnk-PTXWXPvYvuk">
        <mxGraphModel dx="328" dy="324" grid="1" gridSize="10" guides="1" tooltips="1" connect="1" arrows="1" fold="1" page="1" pageScale="1" pageWidth="1169" pageHeight="827" math="0" shadow="0">
            <root>
                <mxCell id="0"/>
                <mxCell id="1" parent="0"/>
                <mxCell id="zA23MoTUsTF4_91t8viU-2" value="MongoDB" style="shape=cylinder3;whiteSpace=wrap;html=1;boundedLbl=1;backgroundOutline=1;size=15;" parent="1" vertex="1">
                    <mxGeometry x="560" y="280" width="60" height="80" as="geometry"/>
                </mxCell>
                <mxCell id="zA23MoTUsTF4_91t8viU-3" value="pymongo-api" style="rounded=1;whiteSpace=wrap;html=1;" parent="1" vertex="1">
                    <mxGeometry x="360" y="290" width="120" height="60" as="geometry"/>
                </mxCell>
                <mxCell id="zA23MoTUsTF4_91t8viU-4" style="edgeStyle=orthogonalEdgeStyle;rounded=0;orthogonalLoop=1;jettySize=auto;html=1;exitX=1;exitY=0.5;exitDx=0;exitDy=0;entryX=0;entryY=0.5;entryDx=0;entryDy=0;entryPerimeter=0;" parent="1" source="zA23MoTUsTF4_91t8viU-3" target="zA23MoTUsTF4_91t8viU-2" edge="1">
                    <mxGeometry relative="1" as="geometry"/>
                </mxCell>
            </root>
        </mxGraphModel>
    </diagram>
    <diagram name="Soultion" id="tDByK8DYALcPt-33HimJ">
        <mxGraphModel dx="1497" dy="1114" grid="1" gridSize="10" guides="1" tooltips="1" connect="1" arrows="1" fold="1" page="1" pageScale="1" pageWidth="1169" pageHeight="827" math="0" shadow="0">
            <root>
                <mxCell id="kzJRIHTF0aswFxOu6W00-0"/>
                <mxCell id="kzJRIHTF0aswFxOu6W00-1" parent="kzJRIHTF0aswFxOu6W00-0"/>
                <mxCell id="k6DYvhaF9a1pZxK_tNey-0" value="" style="ellipse;shape=cloud;whiteSpace=wrap;html=1;labelPosition=right;verticalLabelPosition=top;align=left;verticalAlign=bottom;rotation=30;fillColor=light-dark(#e8eef7, #1d293b);strokeColor=#6c8ebf;" parent="kzJRIHTF0aswFxOu6W00-1" vertex="1">
                    <mxGeometry x="-236.35" y="-514.38" width="705.56" height="510" as="geometry"/>
                </mxCell>
                <mxCell id="zT3xdy62AXibTgxWP2tT-107" value="" style="rounded=1;whiteSpace=wrap;html=1;fillColor=default;dashed=1;dashPattern=12 12;" parent="kzJRIHTF0aswFxOu6W00-1" vertex="1">
                    <mxGeometry x="-310" y="510" width="850" height="790" as="geometry"/>
                </mxCell>
                <mxCell id="zT3xdy62AXibTgxWP2tT-0" value="&lt;b&gt;Исходный вариант схемы&lt;/b&gt;" style="text;html=1;align=left;verticalAlign=middle;whiteSpace=wrap;rounded=0;fontSize=24;" parent="kzJRIHTF0aswFxOu6W00-1" vertex="1">
                    <mxGeometry x="-300" y="-690" width="340" height="30" as="geometry"/>
                </mxCell>
                <mxCell id="zT3xdy62AXibTgxWP2tT-1" value="" style="group" parent="kzJRIHTF0aswFxOu6W00-1" vertex="1" connectable="0">
                    <mxGeometry x="-290" y="-650" width="260" height="80" as="geometry"/>
                </mxCell>
                <mxCell id="kzJRIHTF0aswFxOu6W00-2" value="MongoDB" style="shape=cylinder3;whiteSpace=wrap;html=1;boundedLbl=1;backgroundOutline=1;size=15;" parent="zT3xdy62AXibTgxWP2tT-1" vertex="1">
                    <mxGeometry x="200" width="60" height="80" as="geometry"/>
                </mxCell>
                <mxCell id="kzJRIHTF0aswFxOu6W00-3" value="pymongo-api" style="rounded=1;whiteSpace=wrap;html=1;" parent="zT3xdy62AXibTgxWP2tT-1" vertex="1">
                    <mxGeometry y="10" width="120" height="60" as="geometry"/>
                </mxCell>
                <mxCell id="kzJRIHTF0aswFxOu6W00-4" style="edgeStyle=orthogonalEdgeStyle;rounded=0;orthogonalLoop=1;jettySize=auto;html=1;exitX=1;exitY=0.5;exitDx=0;exitDy=0;entryX=0;entryY=0.5;entryDx=0;entryDy=0;entryPerimeter=0;" parent="zT3xdy62AXibTgxWP2tT-1" source="kzJRIHTF0aswFxOu6W00-3" target="kzJRIHTF0aswFxOu6W00-2" edge="1">
                    <mxGeometry relative="1" as="geometry"/>
                </mxCell>
                <mxCell id="zT3xdy62AXibTgxWP2tT-2" value="&lt;b&gt;Решение:&lt;/b&gt;" style="text;html=1;align=left;verticalAlign=middle;whiteSpace=wrap;rounded=0;fontSize=24;" parent="kzJRIHTF0aswFxOu6W00-1" vertex="1">
                    <mxGeometry x="-305" y="-520" width="135" height="30" as="geometry"/>
                </mxCell>
                <mxCell id="zT3xdy62AXibTgxWP2tT-108" style="edgeStyle=orthogonalEdgeStyle;rounded=0;orthogonalLoop=1;jettySize=auto;html=1;entryX=0.25;entryY=0;entryDx=0;entryDy=0;fillColor=#d5e8d4;strokeColor=light-dark(#497330, #446e2c);strokeWidth=2;" parent="kzJRIHTF0aswFxOu6W00-1" source="zT3xdy62AXibTgxWP2tT-5" target="zT3xdy62AXibTgxWP2tT-107" edge="1">
                    <mxGeometry relative="1" as="geometry">
                        <Array as="points">
                            <mxPoint x="-97" y="397"/>
                        </Array>
                    </mxGeometry>
                </mxCell>
                <mxCell id="zT3xdy62AXibTgxWP2tT-113" style="edgeStyle=orthogonalEdgeStyle;rounded=0;orthogonalLoop=1;jettySize=auto;html=1;entryX=0.5;entryY=1;entryDx=0;entryDy=0;" parent="kzJRIHTF0aswFxOu6W00-1" source="zT3xdy62AXibTgxWP2tT-5" target="zT3xdy62AXibTgxWP2tT-90" edge="1">
                    <mxGeometry relative="1" as="geometry">
                        <Array as="points">
                            <mxPoint x="-99" y="210"/>
                            <mxPoint x="538" y="210"/>
                        </Array>
                    </mxGeometry>
                </mxCell>
                <mxCell id="k6DYvhaF9a1pZxK_tNey-20" value="Регистрация сервиса" style="edgeLabel;html=1;align=center;verticalAlign=middle;resizable=0;points=[];fontSize=9;" parent="zT3xdy62AXibTgxWP2tT-113" vertex="1" connectable="0">
                    <mxGeometry x="0.4736" y="1" relative="1" as="geometry">
                        <mxPoint x="50" as="offset"/>
                    </mxGeometry>
                </mxCell>
                <mxCell id="zT3xdy62AXibTgxWP2tT-5" value="Service 1&lt;br&gt;pymongo-api" style="rounded=1;whiteSpace=wrap;html=1;fillColor=light-dark(#c5e1ec, #173d4d);strokeColor=#10739e;" parent="kzJRIHTF0aswFxOu6W00-1" vertex="1">
                    <mxGeometry x="-159" y="225" width="120" height="60" as="geometry"/>
                </mxCell>
                <mxCell id="zT3xdy62AXibTgxWP2tT-76" value="" style="edgeStyle=orthogonalEdgeStyle;rounded=0;orthogonalLoop=1;jettySize=auto;html=1;" parent="kzJRIHTF0aswFxOu6W00-1" source="zT3xdy62AXibTgxWP2tT-7" target="zT3xdy62AXibTgxWP2tT-75" edge="1">
                    <mxGeometry relative="1" as="geometry">
                        <Array as="points">
                            <mxPoint x="296" y="-40"/>
                            <mxPoint x="120" y="-40"/>
                        </Array>
                    </mxGeometry>
                </mxCell>
                <mxCell id="zT3xdy62AXibTgxWP2tT-7" value="&lt;b&gt;Website \ nginx&lt;/b&gt;" style="rounded=1;whiteSpace=wrap;html=1;" parent="kzJRIHTF0aswFxOu6W00-1" vertex="1">
                    <mxGeometry x="185" y="-269" width="200" height="60" as="geometry"/>
                </mxCell>
                <mxCell id="zT3xdy62AXibTgxWP2tT-34" style="edgeStyle=orthogonalEdgeStyle;rounded=0;orthogonalLoop=1;jettySize=auto;html=1;entryX=0.5;entryY=0;entryDx=0;entryDy=0;" parent="kzJRIHTF0aswFxOu6W00-1" source="zT3xdy62AXibTgxWP2tT-12" target="zT3xdy62AXibTgxWP2tT-15" edge="1">
                    <mxGeometry relative="1" as="geometry"/>
                </mxCell>
                <mxCell id="zT3xdy62AXibTgxWP2tT-35" value="" style="edgeStyle=orthogonalEdgeStyle;rounded=0;orthogonalLoop=1;jettySize=auto;html=1;" parent="kzJRIHTF0aswFxOu6W00-1" source="zT3xdy62AXibTgxWP2tT-12" target="zT3xdy62AXibTgxWP2tT-16" edge="1">
                    <mxGeometry relative="1" as="geometry"/>
                </mxCell>
                <mxCell id="zT3xdy62AXibTgxWP2tT-36" style="edgeStyle=orthogonalEdgeStyle;rounded=0;orthogonalLoop=1;jettySize=auto;html=1;" parent="kzJRIHTF0aswFxOu6W00-1" source="zT3xdy62AXibTgxWP2tT-12" target="zT3xdy62AXibTgxWP2tT-17" edge="1">
                    <mxGeometry relative="1" as="geometry"/>
                </mxCell>
                <mxCell id="zT3xdy62AXibTgxWP2tT-12" value="Driver: pymongo" style="rounded=1;whiteSpace=wrap;html=1;fillColor=#dae8fc;strokeColor=#6c8ebf;" parent="kzJRIHTF0aswFxOu6W00-1" vertex="1">
                    <mxGeometry x="-125" y="580" width="150" height="30" as="geometry"/>
                </mxCell>
                <mxCell id="zT3xdy62AXibTgxWP2tT-38" style="edgeStyle=orthogonalEdgeStyle;rounded=0;orthogonalLoop=1;jettySize=auto;html=1;entryX=0;entryY=0.5;entryDx=0;entryDy=0;dashed=1;endArrow=none;startFill=0;" parent="kzJRIHTF0aswFxOu6W00-1" source="zT3xdy62AXibTgxWP2tT-15" target="zT3xdy62AXibTgxWP2tT-16" edge="1">
                    <mxGeometry relative="1" as="geometry"/>
                </mxCell>
                <mxCell id="zT3xdy62AXibTgxWP2tT-41" style="edgeStyle=orthogonalEdgeStyle;rounded=0;orthogonalLoop=1;jettySize=auto;html=1;entryX=0.5;entryY=1;entryDx=0;entryDy=0;exitX=0.5;exitY=1;exitDx=0;exitDy=0;endArrow=none;startFill=0;" parent="kzJRIHTF0aswFxOu6W00-1" source="zT3xdy62AXibTgxWP2tT-15" target="zT3xdy62AXibTgxWP2tT-17" edge="1">
                    <mxGeometry relative="1" as="geometry"/>
                </mxCell>
                <mxCell id="zT3xdy62AXibTgxWP2tT-43" value="" style="edgeStyle=orthogonalEdgeStyle;rounded=0;orthogonalLoop=1;jettySize=auto;html=1;" parent="kzJRIHTF0aswFxOu6W00-1" source="zT3xdy62AXibTgxWP2tT-15" target="zT3xdy62AXibTgxWP2tT-24" edge="1">
                    <mxGeometry relative="1" as="geometry"/>
                </mxCell>
                <mxCell id="zT3xdy62AXibTgxWP2tT-15" value="Router 1" style="rounded=1;whiteSpace=wrap;html=1;fillColor=#ffe6cc;strokeColor=#d79b00;" parent="kzJRIHTF0aswFxOu6W00-1" vertex="1">
                    <mxGeometry x="-250" y="660" width="120" height="60" as="geometry"/>
                </mxCell>
                <mxCell id="zT3xdy62AXibTgxWP2tT-40" style="edgeStyle=orthogonalEdgeStyle;rounded=0;orthogonalLoop=1;jettySize=auto;html=1;dashed=1;endArrow=none;startFill=0;" parent="kzJRIHTF0aswFxOu6W00-1" source="zT3xdy62AXibTgxWP2tT-16" target="zT3xdy62AXibTgxWP2tT-17" edge="1">
                    <mxGeometry relative="1" as="geometry"/>
                </mxCell>
                <mxCell id="zT3xdy62AXibTgxWP2tT-42" value="" style="edgeStyle=orthogonalEdgeStyle;rounded=0;orthogonalLoop=1;jettySize=auto;html=1;endArrow=none;startFill=0;" parent="kzJRIHTF0aswFxOu6W00-1" source="zT3xdy62AXibTgxWP2tT-16" edge="1">
                    <mxGeometry relative="1" as="geometry">
                        <mxPoint x="-60" y="740" as="targetPoint"/>
                    </mxGeometry>
                </mxCell>
                <mxCell id="zT3xdy62AXibTgxWP2tT-44" value="" style="edgeStyle=orthogonalEdgeStyle;rounded=0;orthogonalLoop=1;jettySize=auto;html=1;" parent="kzJRIHTF0aswFxOu6W00-1" source="zT3xdy62AXibTgxWP2tT-16" target="zT3xdy62AXibTgxWP2tT-25" edge="1">
                    <mxGeometry relative="1" as="geometry"/>
                </mxCell>
                <mxCell id="zT3xdy62AXibTgxWP2tT-16" value="Router 2" style="rounded=1;whiteSpace=wrap;html=1;fillColor=#ffe6cc;strokeColor=#d79b00;" parent="kzJRIHTF0aswFxOu6W00-1" vertex="1">
                    <mxGeometry x="-110" y="660" width="120" height="60" as="geometry"/>
                </mxCell>
                <mxCell id="zT3xdy62AXibTgxWP2tT-45" value="" style="edgeStyle=orthogonalEdgeStyle;rounded=0;orthogonalLoop=1;jettySize=auto;html=1;" parent="kzJRIHTF0aswFxOu6W00-1" source="zT3xdy62AXibTgxWP2tT-17" target="zT3xdy62AXibTgxWP2tT-26" edge="1">
                    <mxGeometry relative="1" as="geometry"/>
                </mxCell>
                <mxCell id="zT3xdy62AXibTgxWP2tT-17" value="Router&amp;nbsp;3" style="rounded=1;whiteSpace=wrap;html=1;fillColor=#ffe6cc;strokeColor=#d79b00;" parent="kzJRIHTF0aswFxOu6W00-1" vertex="1">
                    <mxGeometry x="30" y="660" width="120" height="60" as="geometry"/>
                </mxCell>
                <mxCell id="zT3xdy62AXibTgxWP2tT-21" style="edgeStyle=orthogonalEdgeStyle;rounded=0;orthogonalLoop=1;jettySize=auto;html=1;entryX=0;entryY=0.5;entryDx=0;entryDy=0;dashed=1;" parent="kzJRIHTF0aswFxOu6W00-1" source="zT3xdy62AXibTgxWP2tT-18" target="zT3xdy62AXibTgxWP2tT-19" edge="1">
                    <mxGeometry relative="1" as="geometry"/>
                </mxCell>
                <mxCell id="zT3xdy62AXibTgxWP2tT-22" style="edgeStyle=orthogonalEdgeStyle;rounded=0;orthogonalLoop=1;jettySize=auto;html=1;entryX=0;entryY=0.5;entryDx=0;entryDy=0;dashed=1;" parent="kzJRIHTF0aswFxOu6W00-1" source="zT3xdy62AXibTgxWP2tT-18" target="zT3xdy62AXibTgxWP2tT-20" edge="1">
                    <mxGeometry relative="1" as="geometry"/>
                </mxCell>
                <mxCell id="zT3xdy62AXibTgxWP2tT-48" style="edgeStyle=orthogonalEdgeStyle;rounded=0;orthogonalLoop=1;jettySize=auto;html=1;entryX=1;entryY=0.5;entryDx=0;entryDy=0;endArrow=none;startFill=1;startArrow=classic;" parent="kzJRIHTF0aswFxOu6W00-1" source="zT3xdy62AXibTgxWP2tT-18" target="zT3xdy62AXibTgxWP2tT-47" edge="1">
                    <mxGeometry relative="1" as="geometry"/>
                </mxCell>
                <mxCell id="zT3xdy62AXibTgxWP2tT-50" style="edgeStyle=orthogonalEdgeStyle;rounded=0;orthogonalLoop=1;jettySize=auto;html=1;entryX=1;entryY=0.5;entryDx=0;entryDy=0;exitX=0.5;exitY=1;exitDx=0;exitDy=0;startArrow=classic;startFill=1;endArrow=none;" parent="kzJRIHTF0aswFxOu6W00-1" source="zT3xdy62AXibTgxWP2tT-18" target="zT3xdy62AXibTgxWP2tT-87" edge="1">
                    <mxGeometry relative="1" as="geometry">
                        <mxPoint x="306.25" y="860" as="targetPoint"/>
                    </mxGeometry>
                </mxCell>
                <mxCell id="zT3xdy62AXibTgxWP2tT-18" value="Config Server (primary)" style="rounded=1;whiteSpace=wrap;html=1;fillColor=#fff2cc;strokeColor=#d6b656;" parent="kzJRIHTF0aswFxOu6W00-1" vertex="1">
                    <mxGeometry x="212" y="665" width="120" height="60" as="geometry"/>
                </mxCell>
                <mxCell id="zT3xdy62AXibTgxWP2tT-19" value="Config Server (secondary)" style="rounded=1;whiteSpace=wrap;html=1;fillColor=#f5f5f5;fontColor=#333333;strokeColor=#666666;" parent="kzJRIHTF0aswFxOu6W00-1" vertex="1">
                    <mxGeometry x="380" y="620" width="120" height="60" as="geometry"/>
                </mxCell>
                <mxCell id="zT3xdy62AXibTgxWP2tT-33" style="edgeStyle=orthogonalEdgeStyle;rounded=0;orthogonalLoop=1;jettySize=auto;html=1;endArrow=none;startFill=0;dashed=1;" parent="kzJRIHTF0aswFxOu6W00-1" source="zT3xdy62AXibTgxWP2tT-20" target="zT3xdy62AXibTgxWP2tT-19" edge="1">
                    <mxGeometry relative="1" as="geometry"/>
                </mxCell>
                <mxCell id="zT3xdy62AXibTgxWP2tT-20" value="Config Server (secondary)" style="rounded=1;whiteSpace=wrap;html=1;fillColor=#f5f5f5;fontColor=#333333;strokeColor=#666666;" parent="kzJRIHTF0aswFxOu6W00-1" vertex="1">
                    <mxGeometry x="380" y="720" width="120" height="60" as="geometry"/>
                </mxCell>
                <mxCell id="zT3xdy62AXibTgxWP2tT-24" value="Shard 1 (Replicaset)" style="rounded=1;whiteSpace=wrap;html=1;verticalAlign=top;" parent="kzJRIHTF0aswFxOu6W00-1" vertex="1">
                    <mxGeometry x="-256" y="842.5" width="130" height="337.5" as="geometry"/>
                </mxCell>
                <mxCell id="zT3xdy62AXibTgxWP2tT-25" value="Shard 2 (Replicaset)" style="rounded=1;whiteSpace=wrap;html=1;verticalAlign=top;" parent="kzJRIHTF0aswFxOu6W00-1" vertex="1">
                    <mxGeometry x="-114" y="842.5" width="130" height="337.5" as="geometry"/>
                </mxCell>
                <mxCell id="zT3xdy62AXibTgxWP2tT-26" value="Shard N (Replicaset)" style="rounded=1;whiteSpace=wrap;html=1;verticalAlign=top;" parent="kzJRIHTF0aswFxOu6W00-1" vertex="1">
                    <mxGeometry x="26" y="842.5" width="130" height="337.5" as="geometry"/>
                </mxCell>
                <mxCell id="zT3xdy62AXibTgxWP2tT-84" style="edgeStyle=orthogonalEdgeStyle;rounded=0;orthogonalLoop=1;jettySize=auto;html=1;entryX=0.5;entryY=0;entryDx=0;entryDy=0;endArrow=classic;startFill=0;endFill=1;" parent="kzJRIHTF0aswFxOu6W00-1" source="zT3xdy62AXibTgxWP2tT-27" target="zT3xdy62AXibTgxWP2tT-28" edge="1">
                    <mxGeometry relative="1" as="geometry"/>
                </mxCell>
                <mxCell id="zT3xdy62AXibTgxWP2tT-27" value="Primary&amp;nbsp; 1-1&lt;br&gt;Server: 1-1" style="rounded=1;whiteSpace=wrap;html=1;fillColor=#d5e8d4;strokeColor=#82b366;" parent="kzJRIHTF0aswFxOu6W00-1" vertex="1">
                    <mxGeometry x="-251.25" y="902.5" width="120" height="60" as="geometry"/>
                </mxCell>
                <mxCell id="zT3xdy62AXibTgxWP2tT-28" value="Secondary 1-2&lt;div&gt;&lt;span style=&quot;color: rgb(0, 0, 0);&quot;&gt;Server: 1-2&lt;/span&gt;&lt;/div&gt;" style="rounded=1;whiteSpace=wrap;html=1;fillColor=#f5f5f5;fontColor=#333333;strokeColor=#666666;" parent="kzJRIHTF0aswFxOu6W00-1" vertex="1">
                    <mxGeometry x="-251.12" y="1002.5" width="120" height="60" as="geometry"/>
                </mxCell>
                <mxCell id="zT3xdy62AXibTgxWP2tT-85" style="edgeStyle=orthogonalEdgeStyle;rounded=0;orthogonalLoop=1;jettySize=auto;html=1;entryX=0.5;entryY=0;entryDx=0;entryDy=0;endArrow=classic;startFill=0;endFill=1;" parent="kzJRIHTF0aswFxOu6W00-1" source="zT3xdy62AXibTgxWP2tT-29" target="zT3xdy62AXibTgxWP2tT-30" edge="1">
                    <mxGeometry relative="1" as="geometry"/>
                </mxCell>
                <mxCell id="zT3xdy62AXibTgxWP2tT-29" value="Primary&amp;nbsp; 2-1&lt;br&gt;Server: 2-1" style="rounded=1;whiteSpace=wrap;html=1;fillColor=#d5e8d4;strokeColor=#82b366;" parent="kzJRIHTF0aswFxOu6W00-1" vertex="1">
                    <mxGeometry x="-108.5" y="902.5" width="120" height="60" as="geometry"/>
                </mxCell>
                <mxCell id="zT3xdy62AXibTgxWP2tT-30" value="Secondary 2-2&lt;br&gt;&lt;span style=&quot;color: rgb(0, 0, 0);&quot;&gt;Server: 2-2&lt;/span&gt;" style="rounded=1;whiteSpace=wrap;html=1;fillColor=#f5f5f5;fontColor=#333333;strokeColor=#666666;" parent="kzJRIHTF0aswFxOu6W00-1" vertex="1">
                    <mxGeometry x="-108.37" y="1003.5" width="120" height="60" as="geometry"/>
                </mxCell>
                <mxCell id="zT3xdy62AXibTgxWP2tT-86" style="edgeStyle=orthogonalEdgeStyle;rounded=0;orthogonalLoop=1;jettySize=auto;html=1;endArrow=classic;startFill=0;endFill=1;" parent="kzJRIHTF0aswFxOu6W00-1" source="zT3xdy62AXibTgxWP2tT-31" target="zT3xdy62AXibTgxWP2tT-32" edge="1">
                    <mxGeometry relative="1" as="geometry"/>
                </mxCell>
                <mxCell id="zT3xdy62AXibTgxWP2tT-31" value="Primary&amp;nbsp; N-1&lt;div&gt;Server: N-1&lt;/div&gt;" style="rounded=1;whiteSpace=wrap;html=1;fillColor=#d5e8d4;strokeColor=#82b366;" parent="kzJRIHTF0aswFxOu6W00-1" vertex="1">
                    <mxGeometry x="32" y="902.5" width="120" height="60" as="geometry"/>
                </mxCell>
                <mxCell id="zT3xdy62AXibTgxWP2tT-32" value="Secondary N-2&lt;div&gt;&lt;span style=&quot;color: rgb(0, 0, 0);&quot;&gt;Server: N-2&lt;/span&gt;&lt;/div&gt;" style="rounded=1;whiteSpace=wrap;html=1;fillColor=#f5f5f5;fontColor=#333333;strokeColor=#666666;" parent="kzJRIHTF0aswFxOu6W00-1" vertex="1">
                    <mxGeometry x="32.129999999999995" y="1002.5" width="120" height="60" as="geometry"/>
                </mxCell>
                <mxCell id="zT3xdy62AXibTgxWP2tT-47" value="" style="rounded=1;whiteSpace=wrap;html=1;fillColor=none;dashed=1;dashPattern=8 8;" parent="kzJRIHTF0aswFxOu6W00-1" vertex="1">
                    <mxGeometry x="-270" y="640" width="440" height="110" as="geometry"/>
                </mxCell>
                <mxCell id="zT3xdy62AXibTgxWP2tT-58" value="&lt;h1 style=&quot;margin-top: 0px;&quot;&gt;&lt;font style=&quot;font-size: 16px;&quot;&gt;Комментарий по решению:&lt;br&gt;&lt;br&gt;&lt;/font&gt;&lt;/h1&gt;&lt;div&gt;&lt;font style=&quot;font-size: 16px;&quot;&gt;&lt;b&gt;Роутеры&lt;/b&gt;: для шардирования выбрано три роутера для повышения отказоусточивости маршрутизации.&amp;nbsp;&lt;/font&gt;&lt;span style=&quot;background-color: transparent;&quot;&gt;&lt;font&gt;&lt;span style=&quot;font-size: 16px;&quot;&gt;Все три инстанса роутера работают параллельно.&lt;/span&gt;&lt;br&gt;&lt;span style=&quot;font-size: 16px;&quot;&gt;&lt;font&gt;Роутеры направляют запросы к правильному шардированному серверу на основе метаданных, которые хранятся в конфиге -- Config Server&lt;/font&gt;.&lt;/span&gt;&lt;/font&gt;&lt;/span&gt;&lt;/div&gt;&lt;div&gt;&lt;span style=&quot;background-color: transparent;&quot;&gt;&lt;span style=&quot;font-size: 16px;&quot;&gt;На роутерах предлагается считать хеш по ID пользователя магазина, чтобы распределение по шардам было равномерным и не было горячих шардов&lt;/span&gt;&lt;br&gt;&lt;br&gt;&lt;/span&gt;&lt;span style=&quot;font-size: 16px; background-color: transparent; color: light-dark(rgb(0, 0, 0), rgb(255, 255, 255));&quot;&gt;&lt;br&gt;&lt;b&gt;Конфиг (&lt;/b&gt;&lt;/span&gt;&lt;span style=&quot;font-size: 16px; background-color: transparent; color: light-dark(rgb(0, 0, 0), rgb(255, 255, 255));&quot;&gt;&lt;b&gt;Config Server&lt;/b&gt;&lt;/span&gt;&lt;b style=&quot;background-color: transparent; color: light-dark(rgb(0, 0, 0), rgb(255, 255, 255)); font-size: 16px;&quot;&gt;)&lt;/b&gt;&lt;span style=&quot;background-color: transparent; color: light-dark(rgb(0, 0, 0), rgb(255, 255, 255)); font-size: 16px;&quot;&gt;: у конфига есть три инстанса: один главный (primary) и два запасных (secondary). Реплики нужны для обеспечения консистентности и отказоусточивости.&lt;br&gt;&lt;b&gt;&lt;br&gt;Репликасеты: &lt;/b&gt;расположение реплик находится на разных серверах. В каждом шарде есть один primary на чтение\запись и два secondary на чтение&amp;nbsp;&lt;br&gt;&lt;br&gt;&lt;br&gt;&lt;/span&gt;&lt;/div&gt;&lt;div&gt;&lt;font style=&quot;font-size: 16px;&quot;&gt;&lt;br&gt;&lt;br&gt;&lt;/font&gt;&lt;br&gt;&lt;/div&gt;" style="text;html=1;whiteSpace=wrap;overflow=hidden;rounded=0;" parent="kzJRIHTF0aswFxOu6W00-1" vertex="1">
                    <mxGeometry x="580" y="720" width="400" height="536.25" as="geometry"/>
                </mxCell>
                <mxCell id="zT3xdy62AXibTgxWP2tT-59" value="" style="group;fillColor=#f9f7ed;strokeColor=#36393d;" parent="kzJRIHTF0aswFxOu6W00-1" vertex="1" connectable="0">
                    <mxGeometry x="196" y="570" width="177" height="50" as="geometry"/>
                </mxCell>
                <mxCell id="zT3xdy62AXibTgxWP2tT-60" value="" style="group" parent="zT3xdy62AXibTgxWP2tT-59" vertex="1" connectable="0">
                    <mxGeometry width="177" height="50" as="geometry"/>
                </mxCell>
                <mxCell id="zT3xdy62AXibTgxWP2tT-56" style="edgeStyle=orthogonalEdgeStyle;rounded=1;orthogonalLoop=1;jettySize=auto;html=1;entryX=0.5;entryY=1;entryDx=0;entryDy=0;strokeColor=default;endArrow=none;startFill=0;dashed=1;exitX=0.75;exitY=0;exitDx=0;exitDy=0;curved=0;" parent="zT3xdy62AXibTgxWP2tT-60" source="zT3xdy62AXibTgxWP2tT-18" target="zT3xdy62AXibTgxWP2tT-55" edge="1">
                    <mxGeometry relative="1" as="geometry">
                        <Array as="points">
                            <mxPoint x="118.5" y="48"/>
                            <mxPoint x="88.5" y="48"/>
                        </Array>
                    </mxGeometry>
                </mxCell>
                <mxCell id="zT3xdy62AXibTgxWP2tT-55" value="Информация как распределены чанки, где какие шарды, фрагменты данных, какие ключи (хеш)" style="text;html=1;align=left;verticalAlign=middle;whiteSpace=wrap;rounded=1;strokeColor=default;glass=0;fontSize=9;fillColor=none;dashed=1;dashPattern=1 4;" parent="zT3xdy62AXibTgxWP2tT-60" vertex="1">
                    <mxGeometry width="177" height="50" as="geometry"/>
                </mxCell>
                <mxCell id="zT3xdy62AXibTgxWP2tT-61" style="edgeStyle=orthogonalEdgeStyle;rounded=1;orthogonalLoop=1;jettySize=auto;html=1;entryX=0.5;entryY=1;entryDx=0;entryDy=0;strokeColor=default;endArrow=none;startFill=0;dashed=1;exitX=0;exitY=0.5;exitDx=0;exitDy=0;curved=0;" parent="kzJRIHTF0aswFxOu6W00-1" source="zT3xdy62AXibTgxWP2tT-47" target="zT3xdy62AXibTgxWP2tT-62" edge="1">
                    <mxGeometry relative="1" as="geometry">
                        <mxPoint x="-371" y="695" as="sourcePoint"/>
                        <Array as="points">
                            <mxPoint x="-371" y="695"/>
                            <mxPoint x="-371" y="668"/>
                            <mxPoint x="-401" y="668"/>
                        </Array>
                    </mxGeometry>
                </mxCell>
                <mxCell id="zT3xdy62AXibTgxWP2tT-62" value="На уровне роутера происходит вычисление хеша для ключа, когда происходит запрос на вставку или поиск.&lt;br&gt;&lt;br&gt;На данном этапе предлагается считать хеш по ID пользователя, чтобы распределение было более менее равномерным и не было горячих шардов" style="text;html=1;align=left;verticalAlign=middle;whiteSpace=wrap;rounded=1;strokeColor=#36393d;glass=0;fontSize=9;fillColor=#f9f7ed;dashed=1;dashPattern=1 4;" parent="kzJRIHTF0aswFxOu6W00-1" vertex="1">
                    <mxGeometry x="-640" y="575" width="277" height="90" as="geometry"/>
                </mxCell>
                <mxCell id="k6DYvhaF9a1pZxK_tNey-6" style="edgeStyle=orthogonalEdgeStyle;rounded=0;orthogonalLoop=1;jettySize=auto;html=1;" parent="kzJRIHTF0aswFxOu6W00-1" source="zT3xdy62AXibTgxWP2tT-67" target="k6DYvhaF9a1pZxK_tNey-5" edge="1">
                    <mxGeometry relative="1" as="geometry"/>
                </mxCell>
                <mxCell id="zT3xdy62AXibTgxWP2tT-67" value="Покупатель" style="shape=umlActor;verticalLabelPosition=bottom;verticalAlign=top;html=1;outlineConnect=0;" parent="kzJRIHTF0aswFxOu6W00-1" vertex="1">
                    <mxGeometry x="-290" y="-280" width="30" height="60" as="geometry"/>
                </mxCell>
                <mxCell id="zT3xdy62AXibTgxWP2tT-101" style="edgeStyle=orthogonalEdgeStyle;rounded=0;orthogonalLoop=1;jettySize=auto;html=1;entryX=0.5;entryY=0;entryDx=0;entryDy=0;exitX=0.5;exitY=1;exitDx=0;exitDy=0;fillColor=#fad9d5;strokeColor=#0000FF;strokeWidth=2;" parent="kzJRIHTF0aswFxOu6W00-1" source="zT3xdy62AXibTgxWP2tT-75" target="zT3xdy62AXibTgxWP2tT-5" edge="1">
                    <mxGeometry relative="1" as="geometry"/>
                </mxCell>
                <mxCell id="zT3xdy62AXibTgxWP2tT-102" style="edgeStyle=orthogonalEdgeStyle;rounded=0;orthogonalLoop=1;jettySize=auto;html=1;entryX=0.5;entryY=0;entryDx=0;entryDy=0;exitX=0.5;exitY=1;exitDx=0;exitDy=0;fillColor=#fad9d5;strokeColor=#0000FF;strokeWidth=2;" parent="kzJRIHTF0aswFxOu6W00-1" source="zT3xdy62AXibTgxWP2tT-75" target="zT3xdy62AXibTgxWP2tT-100" edge="1">
                    <mxGeometry relative="1" as="geometry"/>
                </mxCell>
                <mxCell id="zT3xdy62AXibTgxWP2tT-75" value="&lt;b&gt;&lt;span style=&quot;background-color: rgb(251, 251, 251);&quot;&gt;APISIX&lt;/span&gt;&lt;br style=&quot;color: light-dark(var(--text-color), var(--dark-text-color)); scrollbar-color: light-dark(#e2e2e2, #4b4b4b)&lt;br/&gt;&#x9;&#x9;&#x9;&#x9;&#x9;light-dark(#fbfbfb, var(--dark-panel-color)); background-color: rgb(251, 251, 251);&quot;&gt;&lt;span style=&quot;background-color: rgb(251, 251, 251);&quot;&gt;GATEWAY&lt;/span&gt;&lt;/b&gt;" style="rounded=1;whiteSpace=wrap;html=1;" parent="kzJRIHTF0aswFxOu6W00-1" vertex="1">
                    <mxGeometry x="25" y="40" width="190" height="110" as="geometry"/>
                </mxCell>
                <mxCell id="zT3xdy62AXibTgxWP2tT-81" value="Secondary 1-3&lt;br&gt;&lt;span style=&quot;color: rgb(0, 0, 0);&quot;&gt;Server: 1-3&lt;/span&gt;" style="rounded=1;whiteSpace=wrap;html=1;fillColor=#f5f5f5;fontColor=#333333;strokeColor=#666666;" parent="kzJRIHTF0aswFxOu6W00-1" vertex="1">
                    <mxGeometry x="-251.12" y="1063.5" width="120" height="60" as="geometry"/>
                </mxCell>
                <mxCell id="zT3xdy62AXibTgxWP2tT-82" value="Secondary 2-3&lt;br&gt;&lt;span style=&quot;color: rgb(0, 0, 0);&quot;&gt;Server: 2-3&lt;/span&gt;" style="rounded=1;whiteSpace=wrap;html=1;fillColor=#f5f5f5;fontColor=#333333;strokeColor=#666666;" parent="kzJRIHTF0aswFxOu6W00-1" vertex="1">
                    <mxGeometry x="-108.37" y="1062.5" width="120" height="60" as="geometry"/>
                </mxCell>
                <mxCell id="zT3xdy62AXibTgxWP2tT-87" value="" style="rounded=1;whiteSpace=wrap;html=1;fillColor=none;dashed=1;dashPattern=12 12;" parent="kzJRIHTF0aswFxOu6W00-1" vertex="1">
                    <mxGeometry x="-277.5" y="800" width="455" height="430" as="geometry"/>
                </mxCell>
                <mxCell id="zT3xdy62AXibTgxWP2tT-83" value="Secondary N-3&lt;div&gt;&lt;span style=&quot;color: rgb(0, 0, 0);&quot;&gt;Server: N-3&lt;/span&gt;&lt;/div&gt;" style="rounded=1;whiteSpace=wrap;html=1;fillColor=#f5f5f5;fontColor=#333333;strokeColor=#666666;" parent="kzJRIHTF0aswFxOu6W00-1" vertex="1">
                    <mxGeometry x="33.129999999999995" y="1062.5" width="120" height="60" as="geometry"/>
                </mxCell>
                <mxCell id="zT3xdy62AXibTgxWP2tT-91" style="edgeStyle=orthogonalEdgeStyle;rounded=0;orthogonalLoop=1;jettySize=auto;html=1;entryX=0;entryY=0.5;entryDx=0;entryDy=0;fillColor=#fad9d5;strokeColor=#0000FF;strokeWidth=2;" parent="kzJRIHTF0aswFxOu6W00-1" source="zT3xdy62AXibTgxWP2tT-88" target="zT3xdy62AXibTgxWP2tT-90" edge="1">
                    <mxGeometry relative="1" as="geometry">
                        <mxPoint x="460" y="95.00000000000023" as="targetPoint"/>
                    </mxGeometry>
                </mxCell>
                <mxCell id="zT3xdy62AXibTgxWP2tT-88" value="&lt;b&gt;consul_kv&lt;/b&gt;" style="rounded=1;whiteSpace=wrap;html=1;" parent="kzJRIHTF0aswFxOu6W00-1" vertex="1">
                    <mxGeometry x="185" y="65" width="120" height="60" as="geometry"/>
                </mxCell>
                <mxCell id="zT3xdy62AXibTgxWP2tT-90" value="&lt;span style=&quot;background-color: rgb(251, 251, 251);&quot;&gt;&lt;b&gt;Consul&lt;/b&gt;&lt;/span&gt;" style="rounded=1;whiteSpace=wrap;html=1;" parent="kzJRIHTF0aswFxOu6W00-1" vertex="1">
                    <mxGeometry x="443" y="41" width="190" height="110" as="geometry"/>
                </mxCell>
                <mxCell id="zT3xdy62AXibTgxWP2tT-99" value="Сейчас сделан один инстанс без реплик и создания кластера. Если кеш на какое-то время упадет, то сервис напрямую сходит к БД. На будущее при разрастании функционала и нагризки можно посмотерть в сторону создания кластера с репликами и шардированием" style="text;html=1;align=left;verticalAlign=middle;whiteSpace=wrap;rounded=1;strokeColor=#36393d;glass=0;fontSize=9;fillColor=#f9f7ed;dashed=1;dashPattern=1 4;" parent="kzJRIHTF0aswFxOu6W00-1" vertex="1">
                    <mxGeometry x="-640" y="337.5" width="277" height="90" as="geometry"/>
                </mxCell>
                <mxCell id="zT3xdy62AXibTgxWP2tT-105" style="edgeStyle=orthogonalEdgeStyle;rounded=0;orthogonalLoop=1;jettySize=auto;html=1;entryX=0.5;entryY=1;entryDx=0;entryDy=0;" parent="kzJRIHTF0aswFxOu6W00-1" source="zT3xdy62AXibTgxWP2tT-100" target="zT3xdy62AXibTgxWP2tT-90" edge="1">
                    <mxGeometry relative="1" as="geometry">
                        <Array as="points">
                            <mxPoint x="550" y="255"/>
                            <mxPoint x="550" y="152"/>
                            <mxPoint x="538" y="152"/>
                        </Array>
                    </mxGeometry>
                </mxCell>
                <mxCell id="k6DYvhaF9a1pZxK_tNey-19" value="Регистрация сервиса" style="edgeLabel;html=1;align=center;verticalAlign=middle;resizable=0;points=[];fontSize=9;" parent="zT3xdy62AXibTgxWP2tT-105" vertex="1" connectable="0">
                    <mxGeometry x="0.0108" y="1" relative="1" as="geometry">
                        <mxPoint x="-60" y="1" as="offset"/>
                    </mxGeometry>
                </mxCell>
                <mxCell id="zT3xdy62AXibTgxWP2tT-109" style="edgeStyle=orthogonalEdgeStyle;rounded=0;orthogonalLoop=1;jettySize=auto;html=1;entryX=0.75;entryY=0;entryDx=0;entryDy=0;fillColor=#d5e8d4;strokeColor=light-dark(#497330, #446e2c);strokeWidth=2;" parent="kzJRIHTF0aswFxOu6W00-1" source="zT3xdy62AXibTgxWP2tT-100" target="zT3xdy62AXibTgxWP2tT-107" edge="1">
                    <mxGeometry relative="1" as="geometry"/>
                </mxCell>
                <mxCell id="zT3xdy62AXibTgxWP2tT-100" value="Service 1.1&lt;br&gt;pymongo-api" style="rounded=1;whiteSpace=wrap;html=1;fillColor=light-dark(#c5e1ec, #173d4d);strokeColor=#10739e;" parent="kzJRIHTF0aswFxOu6W00-1" vertex="1">
                    <mxGeometry x="269" y="225" width="120" height="60" as="geometry"/>
                </mxCell>
                <mxCell id="zT3xdy62AXibTgxWP2tT-110" style="edgeStyle=orthogonalEdgeStyle;rounded=0;orthogonalLoop=1;jettySize=auto;html=1;entryX=0.5;entryY=0;entryDx=0;entryDy=0;entryPerimeter=0;fillColor=#fad9d5;strokeColor=#ae4132;strokeWidth=2;" parent="kzJRIHTF0aswFxOu6W00-1" source="zT3xdy62AXibTgxWP2tT-5" target="zT3xdy62AXibTgxWP2tT-95" edge="1">
                    <mxGeometry relative="1" as="geometry"/>
                </mxCell>
                <mxCell id="zT3xdy62AXibTgxWP2tT-112" value="" style="edgeStyle=orthogonalEdgeStyle;rounded=0;orthogonalLoop=1;jettySize=auto;html=1;entryX=0.5;entryY=0;entryDx=0;entryDy=0;entryPerimeter=0;fillColor=#fad9d5;strokeColor=#ae4132;strokeWidth=2;" parent="kzJRIHTF0aswFxOu6W00-1" source="zT3xdy62AXibTgxWP2tT-100" target="zT3xdy62AXibTgxWP2tT-95" edge="1">
                    <mxGeometry relative="1" as="geometry">
                        <mxPoint x="150" y="370" as="targetPoint"/>
                        <mxPoint x="310" y="255" as="sourcePoint"/>
                    </mxGeometry>
                </mxCell>
                <mxCell id="zT3xdy62AXibTgxWP2tT-95" value="&lt;b&gt;Redis (master)&lt;/b&gt;" style="shape=cylinder3;whiteSpace=wrap;html=1;boundedLbl=1;backgroundOutline=1;size=15;fillColor=#fad9d5;strokeColor=#ae4132;" parent="kzJRIHTF0aswFxOu6W00-1" vertex="1">
                    <mxGeometry x="60" y="325" width="130" height="115" as="geometry"/>
                </mxCell>
                <mxCell id="zT3xdy62AXibTgxWP2tT-115" style="edgeStyle=orthogonalEdgeStyle;rounded=1;orthogonalLoop=1;jettySize=auto;html=1;entryX=1;entryY=0.5;entryDx=0;entryDy=0;strokeColor=default;endArrow=none;startFill=0;dashed=1;exitX=0;exitY=0.5;exitDx=0;exitDy=0;curved=0;exitPerimeter=0;" parent="kzJRIHTF0aswFxOu6W00-1" source="zT3xdy62AXibTgxWP2tT-95" target="zT3xdy62AXibTgxWP2tT-99" edge="1">
                    <mxGeometry relative="1" as="geometry">
                        <mxPoint x="-209" y="427" as="sourcePoint"/>
                        <Array as="points">
                            <mxPoint x="60" y="380"/>
                            <mxPoint x="-40" y="380"/>
                            <mxPoint x="-40" y="369"/>
                        </Array>
                        <mxPoint x="-440" y="432" as="targetPoint"/>
                    </mxGeometry>
                </mxCell>
                <mxCell id="k6DYvhaF9a1pZxK_tNey-11" style="edgeStyle=orthogonalEdgeStyle;rounded=0;orthogonalLoop=1;jettySize=auto;html=1;entryX=0.5;entryY=0;entryDx=0;entryDy=0;" parent="kzJRIHTF0aswFxOu6W00-1" source="k6DYvhaF9a1pZxK_tNey-5" target="k6DYvhaF9a1pZxK_tNey-9" edge="1">
                    <mxGeometry relative="1" as="geometry"/>
                </mxCell>
                <mxCell id="k6DYvhaF9a1pZxK_tNey-12" style="edgeStyle=orthogonalEdgeStyle;rounded=0;orthogonalLoop=1;jettySize=auto;html=1;entryX=0.5;entryY=0;entryDx=0;entryDy=0;" parent="kzJRIHTF0aswFxOu6W00-1" source="k6DYvhaF9a1pZxK_tNey-5" target="k6DYvhaF9a1pZxK_tNey-10" edge="1">
                    <mxGeometry relative="1" as="geometry"/>
                </mxCell>
                <mxCell id="k6DYvhaF9a1pZxK_tNey-5" value="&lt;span style=&quot;color: rgb(9, 36, 51); font-family: Manrope, sans-serif; font-size: 16px; text-align: start; background-color: rgb(255, 255, 255);&quot;&gt;GeoDNS&amp;nbsp;&lt;/span&gt;" style="rounded=1;whiteSpace=wrap;html=1;rotation=-90;" parent="kzJRIHTF0aswFxOu6W00-1" vertex="1">
                    <mxGeometry x="-131.25" y="-269" width="80" height="40" as="geometry"/>
                </mxCell>
                <mxCell id="k6DYvhaF9a1pZxK_tNey-15" style="edgeStyle=orthogonalEdgeStyle;rounded=0;orthogonalLoop=1;jettySize=auto;html=1;entryX=0;entryY=0.5;entryDx=0;entryDy=0;" parent="kzJRIHTF0aswFxOu6W00-1" source="k6DYvhaF9a1pZxK_tNey-14" target="zT3xdy62AXibTgxWP2tT-7" edge="1">
                    <mxGeometry relative="1" as="geometry"/>
                </mxCell>
                <mxCell id="k6DYvhaF9a1pZxK_tNey-14" value="Cache" style="shape=cylinder3;whiteSpace=wrap;html=1;boundedLbl=1;backgroundOutline=1;size=15;rotation=-90;" parent="kzJRIHTF0aswFxOu6W00-1" vertex="1">
                    <mxGeometry x="30" y="-420" width="60" height="80" as="geometry"/>
                </mxCell>
                <mxCell id="k6DYvhaF9a1pZxK_tNey-16" style="edgeStyle=orthogonalEdgeStyle;rounded=0;orthogonalLoop=1;jettySize=auto;html=1;entryX=0;entryY=0.5;entryDx=0;entryDy=0;" parent="kzJRIHTF0aswFxOu6W00-1" source="k6DYvhaF9a1pZxK_tNey-13" target="zT3xdy62AXibTgxWP2tT-7" edge="1">
                    <mxGeometry relative="1" as="geometry"/>
                </mxCell>
                <mxCell id="k6DYvhaF9a1pZxK_tNey-13" value="Cache" style="shape=cylinder3;whiteSpace=wrap;html=1;boundedLbl=1;backgroundOutline=1;size=15;rotation=-90;" parent="kzJRIHTF0aswFxOu6W00-1" vertex="1">
                    <mxGeometry x="25" y="-140" width="60" height="80" as="geometry"/>
                </mxCell>
                <mxCell id="k6DYvhaF9a1pZxK_tNey-10" value="CDN (Region 1)" style="rounded=1;whiteSpace=wrap;html=1;rotation=-90;" parent="kzJRIHTF0aswFxOu6W00-1" vertex="1">
                    <mxGeometry x="-31.810000000000002" y="-167.94" width="97.87" height="40" as="geometry"/>
                </mxCell>
                <mxCell id="k6DYvhaF9a1pZxK_tNey-9" value="CDN (Region 2)" style="rounded=1;whiteSpace=wrap;html=1;rotation=-90;" parent="kzJRIHTF0aswFxOu6W00-1" vertex="1">
                    <mxGeometry x="-25" y="-365" width="90" height="40" as="geometry"/>
                </mxCell>
                <mxCell id="k6DYvhaF9a1pZxK_tNey-18" value="&lt;b&gt;CDN&lt;/b&gt;" style="text;html=1;align=center;verticalAlign=middle;whiteSpace=wrap;rounded=0;" parent="kzJRIHTF0aswFxOu6W00-1" vertex="1">
                    <mxGeometry x="92" y="-470" width="60" height="30" as="geometry"/>
                </mxCell>
            </root>
        </mxGraphModel>
    </diagram>
</mxfile>